<mxfile host="app.diagrams.net" modified="2023-08-18T08:32:56.851Z" agent="Mozilla/5.0 (Windows NT 10.0; Win64; x64) AppleWebKit/537.36 (KHTML, like Gecko) Chrome/114.0.0.0 Safari/537.36" etag="cM-1GuLBRnNnNhFPUVN5" version="21.6.8" type="github">
  <diagram name="第 1 页" id="t5Y26Zr0qJSXIxIpozBC">
    <mxGraphModel dx="838" dy="1630" grid="1" gridSize="10" guides="1" tooltips="1" connect="1" arrows="1" fold="1" page="1" pageScale="1" pageWidth="827" pageHeight="1169" math="0" shadow="0">
      <root>
        <mxCell id="0" />
        <mxCell id="1" parent="0" />
        <mxCell id="OYa29BCmpqdxNjMqFtXP-26" value="" style="edgeStyle=orthogonalEdgeStyle;rounded=0;orthogonalLoop=1;jettySize=auto;html=1;" edge="1" parent="1" source="OYa29BCmpqdxNjMqFtXP-24" target="OYa29BCmpqdxNjMqFtXP-25">
          <mxGeometry relative="1" as="geometry" />
        </mxCell>
        <mxCell id="OYa29BCmpqdxNjMqFtXP-24" value="" style="strokeWidth=2;html=1;shape=mxgraph.flowchart.start_1;whiteSpace=wrap;" vertex="1" parent="1">
          <mxGeometry x="170" y="-220" width="100" height="60" as="geometry" />
        </mxCell>
        <mxCell id="OYa29BCmpqdxNjMqFtXP-28" value="" style="edgeStyle=orthogonalEdgeStyle;rounded=0;orthogonalLoop=1;jettySize=auto;html=1;" edge="1" parent="1" source="OYa29BCmpqdxNjMqFtXP-25" target="OYa29BCmpqdxNjMqFtXP-27">
          <mxGeometry relative="1" as="geometry" />
        </mxCell>
        <mxCell id="OYa29BCmpqdxNjMqFtXP-25" value="" style="whiteSpace=wrap;html=1;strokeWidth=2;" vertex="1" parent="1">
          <mxGeometry x="160" y="-80" width="120" height="60" as="geometry" />
        </mxCell>
        <mxCell id="OYa29BCmpqdxNjMqFtXP-30" value="" style="edgeStyle=orthogonalEdgeStyle;rounded=0;orthogonalLoop=1;jettySize=auto;html=1;" edge="1" parent="1" source="OYa29BCmpqdxNjMqFtXP-27" target="OYa29BCmpqdxNjMqFtXP-29">
          <mxGeometry relative="1" as="geometry" />
        </mxCell>
        <mxCell id="OYa29BCmpqdxNjMqFtXP-27" value="" style="whiteSpace=wrap;html=1;strokeWidth=2;" vertex="1" parent="1">
          <mxGeometry x="160" y="60" width="120" height="60" as="geometry" />
        </mxCell>
        <mxCell id="OYa29BCmpqdxNjMqFtXP-32" value="" style="edgeStyle=orthogonalEdgeStyle;rounded=0;orthogonalLoop=1;jettySize=auto;html=1;" edge="1" parent="1" source="OYa29BCmpqdxNjMqFtXP-29" target="OYa29BCmpqdxNjMqFtXP-31">
          <mxGeometry relative="1" as="geometry" />
        </mxCell>
        <mxCell id="OYa29BCmpqdxNjMqFtXP-36" value="" style="edgeStyle=orthogonalEdgeStyle;rounded=0;orthogonalLoop=1;jettySize=auto;html=1;" edge="1" parent="1" source="OYa29BCmpqdxNjMqFtXP-29" target="OYa29BCmpqdxNjMqFtXP-35">
          <mxGeometry relative="1" as="geometry" />
        </mxCell>
        <mxCell id="OYa29BCmpqdxNjMqFtXP-29" value="" style="rhombus;whiteSpace=wrap;html=1;strokeWidth=2;" vertex="1" parent="1">
          <mxGeometry x="180" y="190" width="80" height="80" as="geometry" />
        </mxCell>
        <mxCell id="OYa29BCmpqdxNjMqFtXP-34" style="edgeStyle=orthogonalEdgeStyle;rounded=0;orthogonalLoop=1;jettySize=auto;html=1;exitX=0.5;exitY=1;exitDx=0;exitDy=0;" edge="1" parent="1" source="OYa29BCmpqdxNjMqFtXP-31" target="OYa29BCmpqdxNjMqFtXP-33">
          <mxGeometry relative="1" as="geometry" />
        </mxCell>
        <mxCell id="OYa29BCmpqdxNjMqFtXP-31" value="" style="whiteSpace=wrap;html=1;strokeWidth=2;" vertex="1" parent="1">
          <mxGeometry x="160" y="360" width="120" height="60" as="geometry" />
        </mxCell>
        <mxCell id="OYa29BCmpqdxNjMqFtXP-33" value="" style="strokeWidth=2;html=1;shape=mxgraph.flowchart.terminator;whiteSpace=wrap;" vertex="1" parent="1">
          <mxGeometry x="170" y="510" width="100" height="60" as="geometry" />
        </mxCell>
        <mxCell id="OYa29BCmpqdxNjMqFtXP-38" value="" style="edgeStyle=orthogonalEdgeStyle;rounded=0;orthogonalLoop=1;jettySize=auto;html=1;" edge="1" parent="1" source="OYa29BCmpqdxNjMqFtXP-35" target="OYa29BCmpqdxNjMqFtXP-37">
          <mxGeometry relative="1" as="geometry" />
        </mxCell>
        <mxCell id="OYa29BCmpqdxNjMqFtXP-35" value="" style="whiteSpace=wrap;html=1;strokeWidth=2;" vertex="1" parent="1">
          <mxGeometry x="320" y="200" width="120" height="60" as="geometry" />
        </mxCell>
        <mxCell id="OYa29BCmpqdxNjMqFtXP-40" style="edgeStyle=orthogonalEdgeStyle;rounded=0;orthogonalLoop=1;jettySize=auto;html=1;exitX=0.5;exitY=1;exitDx=0;exitDy=0;entryX=0.5;entryY=0;entryDx=0;entryDy=0;entryPerimeter=0;" edge="1" parent="1" source="OYa29BCmpqdxNjMqFtXP-37" target="OYa29BCmpqdxNjMqFtXP-39">
          <mxGeometry relative="1" as="geometry" />
        </mxCell>
        <mxCell id="OYa29BCmpqdxNjMqFtXP-37" value="" style="whiteSpace=wrap;html=1;strokeWidth=2;" vertex="1" parent="1">
          <mxGeometry x="520" y="200" width="120" height="60" as="geometry" />
        </mxCell>
        <mxCell id="OYa29BCmpqdxNjMqFtXP-39" value="" style="strokeWidth=2;html=1;shape=mxgraph.flowchart.terminator;whiteSpace=wrap;" vertex="1" parent="1">
          <mxGeometry x="530" y="360" width="100" height="60" as="geometry" />
        </mxCell>
      </root>
    </mxGraphModel>
  </diagram>
</mxfile>
